<svg xmlns="http://www.w3.org/2000/svg" width="609" height="1050" viewBox="0 0 609 1050" preserveAspectRatio="xMidYMid meet" role="img" aria-label="Calvertowne townhouse main level floor plan: kitchen/dining and living room">
<defs><style>
    .fp{fill:#FFFFFF}
    .w{fill:none;stroke:#2C3E2D;stroke-width:7;stroke-linecap:butt}
    .wo{fill:none;stroke:#2C3E2D;stroke-width:10;stroke-linecap:butt}
    .d{fill:none;stroke:#7C9880;stroke-width:4;stroke-dasharray:5 6}
    .arc{fill:none;stroke:#5E7D63;stroke-width:3}
    .win{fill:none;stroke:#2C3E2D;stroke-width:2.5}
    .rm{fill:#22331F;font-family:'Helvetica Neue',Arial,sans-serif;font-size:25px;font-style:italic;text-anchor:middle}
    .cl{fill:#4A5C4D;font-family:'Helvetica Neue',Arial,sans-serif;font-size:18px;font-style:italic;text-anchor:middle}
    .sm{fill:#4A5C4D;font-family:'Helvetica Neue',Arial,sans-serif;font-size:14px;font-style:italic;text-anchor:middle}
  </style></defs>
<rect class="fp" x="21" y="20" width="570" height="1009"/>
<path class="w" d="M17,526 H376 M468,526 H591 M465,626 H594"/>
<path class="d" d="M452,526 H468"/>
<path class="arc" d="M86,20 V117 M86,117 A97,97 0 0 0 183,20"/>
<path class="arc" d="M372,20 V117 M372,117 A97,97 0 0 0 469,20"/>
<path class="win" d="M89,1024 H186 M89,1029 H186 M89,1034 H186 M89,1022 V1036 M186,1022 V1036"/>
<path class="win" d="M332,1024 H440 M332,1029 H440 M332,1034 H440 M332,1022 V1036 M440,1022 V1036"/>
<path class="wo" d="M21,20 H86 M183,20 H372 M469,20 H591 V1029 H440 M332,1029 H186 M89,1029 H21 V20"/>
<text class="rm" x="300" y="250">Kitchen/Dining</text>
<text class="rm" x="230" y="760">Living Room</text>
<text class="sm" x="535" y="575">Closet</text>
</svg>