<svg xmlns="http://www.w3.org/2000/svg" width="869" height="893" viewBox="0 0 869 893" preserveAspectRatio="xMidYMid meet" role="img" aria-label="Calvertowne two-bedroom townhouse upper level floor plan: two bedrooms, bathroom, hallway, and closets">
<defs><style>
    .fp{fill:#FFFFFF}
    .w{fill:none;stroke:#2C3E2D;stroke-width:7;stroke-linecap:butt}
    .wo{fill:none;stroke:#2C3E2D;stroke-width:10;stroke-linecap:butt}
    .d{fill:none;stroke:#7C9880;stroke-width:2.5;stroke-dasharray:5 6}
    .arc{fill:none;stroke:#5E7D63;stroke-width:3}
    .win{fill:none;stroke:#2C3E2D;stroke-width:2.5}
    .st{fill:none;stroke:#2C3E2D;stroke-width:2.5}
    .rm{fill:#22331F;font-family:'Helvetica Neue',Arial,sans-serif;font-size:25px;font-style:italic;text-anchor:middle}
    .cl{fill:#4A5C4D;font-family:'Helvetica Neue',Arial,sans-serif;font-size:18px;font-style:italic;text-anchor:middle}
    .sm{fill:#4A5C4D;font-family:'Helvetica Neue',Arial,sans-serif;font-size:14px;font-style:italic;text-anchor:middle}
  </style></defs>
<rect class="fp" x="17" y="7" width="834" height="863"/>
<path class="w" d="M343,6 V34 M343,126 V289 M343,292 V320 M343,411 V436 M488,6 V143 M488,160 V296 M670,439 V868 M338,152 H488 M338,291 H369 M464,291 H707 M819,291 H851 M20,435 H349 M352,435 H509 M617,435 H670 M666,708 H855"/>
<path class="arc" d="M822,291 V178 M709,291 A113,113 0 0 1 822,178"/>
<path class="arc" d="M343,414 H264 M343,335 A79,79 0 0 0 264,414"/>
<path class="arc" d="M620,435 V530 M525,435 A95,95 0 0 0 620,530"/>
<path class="d" d="M369,285 H464 M369,293 H464 M346,47 V127 M354,47 V127"/>
<path class="st" d="M670,436 V700 M850,436 V700 M670,437 H850 M670,468 H850 M670,500 H850 M670,528 H850 M670,562 H850 M670,590 H850 M670,622 H850 M670,653 H850 M670,684 H850"/>
<path class="st" d="M670,716 V866 M850,716 V866 M670,747 H850 M670,775 H850 M670,807 H850 M670,838 H850 M670,862 H850"/>
<path class="wo" d="M17,7 H851 V870 H17 V7"/>
<text class="rm" x="180" y="225">Bedroom</text>
<text class="rm" x="280" y="660">Bedroom</text>
<text class="rm" x="655" y="158">Bathroom</text>
<text class="cl" x="575" y="375">Hallway</text>
<text class="sm" x="425" y="90">Closet</text>
<text class="sm" x="420" y="235">Closet</text>
<text class="sm" x="762" y="785">Closet</text>
</svg>