<svg xmlns="http://www.w3.org/2000/svg" width="1080" height="948" viewBox="0 0 1080 948" preserveAspectRatio="xMidYMid meet" role="img" aria-label="Calvertowne three-bedroom townhouse upper level floor plan: three bedrooms, bathroom, hallway, and closets">
<defs><style>
    .fp{fill:#FFFFFF}
    .w{fill:none;stroke:#2C3E2D;stroke-width:7;stroke-linecap:butt}
    .wo{fill:none;stroke:#2C3E2D;stroke-width:10;stroke-linecap:butt}
    .d{fill:none;stroke:#7C9880;stroke-width:4;stroke-dasharray:5 6}
    .arc{fill:none;stroke:#5E7D63;stroke-width:3}
    .win{fill:none;stroke:#2C3E2D;stroke-width:2.5}
    .rm{fill:#22331F;font-family:'Helvetica Neue',Arial,sans-serif;font-size:25px;font-style:italic;text-anchor:middle}
    .cl{fill:#4A5C4D;font-family:'Helvetica Neue',Arial,sans-serif;font-size:18px;font-style:italic;text-anchor:middle}
    .sm{fill:#4A5C4D;font-family:'Helvetica Neue',Arial,sans-serif;font-size:14px;font-style:italic;text-anchor:middle}
  </style></defs>
<rect class="fp" x="15" y="15" width="1049" height="901"/>
<path class="w" d="M179,464 V545 M179,655 V675 M504,12 V42 M504,141 V342 M504,440 V464 M616,471 V920 M654,12 V323 M654,382 V401 M910,467 V920 M498,167 H662 M498,318 H529 M628,318 H903 M1029,318 H1060 M12,466 H495 M607,466 H775 M884,466 H904 M12,541 H183 M919,768 H1056"/>
<path class="d" d="M179,33 V56 M179,212 V251 M179,648 V693 M616,64 V88 M616,229 V259 M616,386 V408 M654,364 V384 M654,390 V408 M654,637 V661 M910,158 V173 M749,167 H767 M776,167 H815 M828,167 H856 M874,167 H891 M905,167 H924 M935,167 H954"/>
<path class="win" d="M152,10 H264 M152,15 H264 M152,20 H264 M152,8 V22 M264,8 V22"/>
<path class="win" d="M218,911 H335 M218,916 H335 M218,921 H335 M218,909 V923 M335,909 V923"/>
<path class="win" d="M709,911 H822 M709,916 H822 M709,921 H822 M709,909 V923 M822,909 V923"/>
<path class="wo" d="M15,15 H152 M264,15 H1064 V916 H822 M709,916 H335 M218,916 H15 V15"/>
<text class="rm" x="230" y="235">Bedroom</text>
<text class="rm" x="245" y="670">Bedroom</text>
<text class="rm" x="760" y="650">Bedroom</text>
<text class="rm" x="850" y="150">Bathroom</text>
<text class="cl" x="690" y="390">Hallway</text>
<text class="sm" x="575" y="100">Closet</text>
<text class="sm" x="575" y="240">Closet</text>
<text class="sm" x="95" y="515">Closet</text>
<text class="sm" x="975" y="855">Closet</text>
</svg>